<svg xmlns="http://www.w3.org/2000/svg" viewBox="0 0 48 48" width="48" height="48"><g class="nc-icon-wrapper"><path fill="#E86C60" d="M24,47c-8.35645,0-17-6.35889-17-17C7,19.83008,22.625,3.96582,23.29004,3.29541 c0.37598-0.37793,1.04395-0.37793,1.41992,0C25.375,3.96582,41,19.83008,41,30C41,40.64111,32.35645,47,24,47z"></path> <path fill="#EFD358" d="M24,36c-1.55664,0-6-1.10254-6-6c0.0918-1.91602,2.56348-6.17676,5.99316-10.71875 c3.4375,4.55469,5.91602,8.82324,6.00684,10.74023C30,34.89746,25.55664,36,24,36z"></path></g></svg>